<svg width="500" height="150" viewBox="0 0 500 150" fill="none" xmlns="http://www.w3.org/2000/svg">
<path d="M78 35H22C15.3726 35 10 40.3726 10 47V103C10 109.627 15.3726 115 22 115H78C84.6274 115 90 109.627 90 103V47C90 40.3726 84.6274 35 78 35Z" fill="#006C67"/>
<path d="M35 66C38.3137 66 41 63.3137 41 60C41 56.6863 38.3137 54 35 54C31.6863 54 29 56.6863 29 60C29 63.3137 31.6863 66 35 66Z" fill="white"/>
<path d="M65 66C68.3137 66 71 63.3137 71 60C71 56.6863 68.3137 54 65 54C61.6863 54 59 56.6863 59 60C59 63.3137 61.6863 66 65 66Z" fill="white"/>
<path d="M35 85C45 95 55 95 65 85" stroke="white" stroke-width="6" stroke-linecap="round"/>
<path d="M109.636 98V51.4545H115.273V74.5455H115.818L136.727 51.4545H144.091L124.545 72.4545L144.091 98H137.273L121.091 76.3636L115.273 82.9091V98H109.636ZM160.932 98.8182C158.72 98.8182 156.712 98.4015 154.909 97.5682C153.106 96.7197 151.674 95.5 150.614 93.9091C149.553 92.303 149.023 90.3636 149.023 88.0909C149.023 86.0909 149.417 84.4697 150.205 83.2273C150.992 81.9697 152.045 80.9848 153.364 80.2727C154.682 79.5606 156.136 79.0303 157.727 78.6818C159.333 78.3182 160.947 78.0303 162.568 77.8182C164.689 77.5455 166.409 77.3409 167.727 77.2045C169.061 77.053 170.03 76.803 170.636 76.4545C171.258 76.1061 171.568 75.5 171.568 74.6364V74.4545C171.568 72.2121 170.955 70.4697 169.727 69.2273C168.515 67.9848 166.674 67.3636 164.205 67.3636C161.644 67.3636 159.636 67.9242 158.182 69.0455C156.727 70.1667 155.705 71.3636 155.114 72.6364L150.023 70.8182C150.932 68.697 152.144 67.0455 153.659 65.8636C155.189 64.6667 156.856 63.8333 158.659 63.3636C160.477 62.8788 162.265 62.6364 164.023 62.6364C165.144 62.6364 166.432 62.7727 167.886 63.0455C169.356 63.303 170.773 63.8409 172.136 64.6591C173.515 65.4773 174.659 66.7121 175.568 68.3636C176.477 70.0152 176.932 72.2273 176.932 75V98H171.568V93.2727H171.295C170.932 94.0303 170.326 94.8409 169.477 95.7045C168.629 96.5682 167.5 97.303 166.091 97.9091C164.682 98.5152 162.962 98.8182 160.932 98.8182ZM161.75 94C163.871 94 165.659 93.5833 167.114 92.75C168.583 91.9167 169.689 90.8409 170.432 89.5227C171.189 88.2045 171.568 86.8182 171.568 85.3636V80.4545C171.341 80.7273 170.841 80.9773 170.068 81.2045C169.311 81.4167 168.432 81.6061 167.432 81.7727C166.447 81.9242 165.485 82.0606 164.545 82.1818C163.621 82.2879 162.871 82.3788 162.295 82.4545C160.902 82.6364 159.598 82.9318 158.386 83.3409C157.189 83.7348 156.22 84.3333 155.477 85.1364C154.75 85.9242 154.386 87 154.386 88.3636C154.386 90.2273 155.076 91.6364 156.455 92.5909C157.848 93.5303 159.614 94 161.75 94ZM186.722 98V63.0909H192.085V98H186.722ZM189.449 57.2727C188.403 57.2727 187.502 56.9167 186.744 56.2045C186.002 55.4924 185.631 54.6364 185.631 53.6364C185.631 52.6364 186.002 51.7803 186.744 51.0682C187.502 50.3561 188.403 50 189.449 50C190.494 50 191.388 50.3561 192.131 51.0682C192.888 51.7803 193.267 52.6364 193.267 53.6364C193.267 54.6364 192.888 55.4924 192.131 56.2045C191.388 56.9167 190.494 57.2727 189.449 57.2727ZM202.636 98V51.4545H208.273V74.5455H208.818L229.727 51.4545H237.091L217.545 72.4545L237.091 98H230.273L214.091 76.3636L208.273 82.9091V98H202.636ZM253.932 98.8182C251.72 98.8182 249.712 98.4015 247.909 97.5682C246.106 96.7197 244.674 95.5 243.614 93.9091C242.553 92.303 242.023 90.3636 242.023 88.0909C242.023 86.0909 242.417 84.4697 243.205 83.2273C243.992 81.9697 245.045 80.9848 246.364 80.2727C247.682 79.5606 249.136 79.0303 250.727 78.6818C252.333 78.3182 253.947 78.0303 255.568 77.8182C257.689 77.5455 259.409 77.3409 260.727 77.2045C262.061 77.053 263.03 76.803 263.636 76.4545C264.258 76.1061 264.568 75.5 264.568 74.6364V74.4545C264.568 72.2121 263.955 70.4697 262.727 69.2273C261.515 67.9848 259.674 67.3636 257.205 67.3636C254.644 67.3636 252.636 67.9242 251.182 69.0455C249.727 70.1667 248.705 71.3636 248.114 72.6364L243.023 70.8182C243.932 68.697 245.144 67.0455 246.659 65.8636C248.189 64.6667 249.856 63.8333 251.659 63.3636C253.477 62.8788 255.265 62.6364 257.023 62.6364C258.144 62.6364 259.432 62.7727 260.886 63.0455C262.356 63.303 263.773 63.8409 265.136 64.6591C266.515 65.4773 267.659 66.7121 268.568 68.3636C269.477 70.0152 269.932 72.2273 269.932 75V98H264.568V93.2727H264.295C263.932 94.0303 263.326 94.8409 262.477 95.7045C261.629 96.5682 260.5 97.303 259.091 97.9091C257.682 98.5152 255.962 98.8182 253.932 98.8182ZM254.75 94C256.871 94 258.659 93.5833 260.114 92.75C261.583 91.9167 262.689 90.8409 263.432 89.5227C264.189 88.2045 264.568 86.8182 264.568 85.3636V80.4545C264.341 80.7273 263.841 80.9773 263.068 81.2045C262.311 81.4167 261.432 81.6061 260.432 81.7727C259.447 81.9242 258.485 82.0606 257.545 82.1818C256.621 82.2879 255.871 82.3788 255.295 82.4545C253.902 82.6364 252.598 82.9318 251.386 83.3409C250.189 83.7348 249.22 84.3333 248.477 85.1364C247.75 85.9242 247.386 87 247.386 88.3636C247.386 90.2273 248.076 91.6364 249.455 92.5909C250.848 93.5303 252.614 94 254.75 94ZM293.903 98.7273C290.631 98.7273 287.813 97.9545 285.449 96.4091C283.085 94.8636 281.267 92.7348 279.994 90.0227C278.722 87.3106 278.085 84.2121 278.085 80.7273C278.085 77.1818 278.737 74.053 280.04 71.3409C281.358 68.6136 283.191 66.4848 285.54 64.9545C287.903 63.4091 290.661 62.6364 293.812 62.6364C296.267 62.6364 298.479 63.0909 300.449 64C302.419 64.9091 304.032 66.1818 305.29 67.8182C306.547 69.4545 307.328 71.3636 307.631 73.5455H302.267C301.858 71.9545 300.949 70.5455 299.54 69.3182C298.146 68.0758 296.267 67.4545 293.903 67.4545C291.813 67.4545 289.979 68 288.403 69.0909C286.843 70.1667 285.623 71.6894 284.744 73.6591C283.881 75.6136 283.449 77.9091 283.449 80.5455C283.449 83.2424 283.873 85.5909 284.722 87.5909C285.585 89.5909 286.797 91.1439 288.358 92.25C289.934 93.3561 291.782 93.9091 293.903 93.9091C295.297 93.9091 296.562 93.6667 297.699 93.1818C298.835 92.697 299.797 92 300.585 91.0909C301.373 90.1818 301.934 89.0909 302.267 87.8182H307.631C307.328 89.8788 306.578 91.7348 305.381 93.3864C304.199 95.0227 302.631 96.3258 300.676 97.2955C298.737 98.25 296.479 98.7273 293.903 98.7273ZM315.472 98V63.0909H320.835V98H315.472ZM318.199 57.2727C317.153 57.2727 316.252 56.9167 315.494 56.2045C314.752 55.4924 314.381 54.6364 314.381 53.6364C314.381 52.6364 314.752 51.7803 315.494 51.0682C316.252 50.3561 317.153 50 318.199 50C319.244 50 320.138 50.3561 320.881 51.0682C321.638 51.7803 322.017 52.6364 322.017 53.6364C322.017 54.6364 321.638 55.4924 320.881 56.2045C320.138 56.9167 319.244 57.2727 318.199 57.2727Z" fill="#006C67"/>
</svg>
